<?xml version="1.0" encoding="UTF-8"?>
<!DOCTYPE svg PUBLIC "-//W3C//DTD SVG 1.1//EN" "http://www.w3.org/Graphics/SVG/1.1/DTD/svg11.dtd">
<!-- Creator: CorelDRAW X7 -->
<svg xmlns="http://www.w3.org/2000/svg" xml:space="preserve" width="69.978mm" height="102.593mm" version="1.1" style="shape-rendering:geometricPrecision; text-rendering:geometricPrecision; image-rendering:optimizeQuality; fill-rule:evenodd; clip-rule:evenodd"
viewBox="0 0 6998 10259"
 xmlns:xlink="http://www.w3.org/1999/xlink">
 <defs>
  <style type="text/css">
   <![CDATA[
    .fil1 {fill:black}
    .fil2 {fill:white}
    .fil0 {fill:black;fill-rule:nonzero}
   ]]>
  </style>
 </defs>
 <g id="Layer_x0020_1">
  <metadata id="CorelCorpID_0Corel-Layer"/>
  <g id="_2116612155488">
   <g>
    <path class="fil0" d="M0 10092l0 -154 320 -460 181 0 0 445 61 0 0 169 -61 0 0 155 -200 0 0 -155 -301 0zm301 -336l-98 167 98 0 0 -167z"/>
    <path id="1" class="fil0" d="M603 10037l0 -347c0,-73 25,-129 76,-169 45,-36 105,-54 181,-54 74,0 135,18 181,54 51,39 76,96 76,169l0 347c0,74 -25,131 -75,170 -46,35 -106,52 -182,52 -75,0 -136,-18 -181,-53 -51,-39 -76,-96 -76,-169zm257 34c16,0 30,-5 41,-15 11,-10 17,-23 17,-38l0 -311c0,-15 -6,-28 -17,-38 -11,-9 -25,-14 -41,-14 -17,0 -30,5 -41,14 -12,10 -17,23 -17,38l0 311c0,15 5,28 17,38 11,10 24,15 41,15z"/>
    <path id="2" class="fil0" d="M1158 10092l0 -154 319 -460 181 0 0 445 62 0 0 169 -62 0 0 155 -199 0 0 -155 -301 0zm301 -336l-98 167 98 0 0 -167z"/>
    <path class="fil0" d="M2447 9962l0 75c0,64 -26,116 -79,157 -48,35 -106,53 -172,53l-251 0 0 -190 242 0c43,0 65,-16 65,-47l0 -24c0,-33 -17,-49 -52,-49l-31 0 -38 -2c-57,-3 -105,-23 -144,-59 -39,-38 -59,-85 -59,-141l0 -39c0,-7 0,-11 1,-12 3,-62 27,-112 72,-151 41,-37 94,-55 158,-55l236 0 0 186 -227 0c-28,0 -42,14 -42,42 0,29 14,43 43,44l56 3c69,4 121,23 155,56 45,46 67,96 67,153z"/>
    <polygon id="1" class="fil0" points="2990,9478 2990,9664 2704,9664 2704,9762 2861,9762 2861,9946 2704,9946 2704,10057 2990,10057 2990,10247 2506,10247 2506,9478 "/>
    <path id="2" class="fil0" d="M3251 10004c0,36 18,53 53,53l173 0 0 190 -175 0c-73,0 -132,-18 -177,-55 -49,-40 -73,-95 -73,-167l0 -325c0,-71 24,-127 73,-167 45,-37 104,-55 177,-55l175 0 0 186 -173 0c-35,0 -53,17 -53,52l0 288z"/>
    <path id="3" class="fil0" d="M3845 9478l198 0 0 558c0,73 -24,130 -72,170 -43,35 -103,53 -179,53 -74,0 -134,-18 -178,-53 -47,-40 -71,-96 -71,-169l0 -559 198 0 0 540c0,15 5,28 14,38 9,10 22,15 37,15 35,0 53,-18 53,-53l0 -540z"/>
    <path id="4" class="fil0" d="M4318 9951l0 296 -198 0 0 -769 258 0c71,0 129,17 175,51 50,38 76,92 76,161l0 35c0,91 -42,157 -124,197l167 325 -216 0 -138 -296zm0 -287l0 130 51 0c46,0 69,-21 69,-65 0,-43 -23,-65 -69,-65l-51 0z"/>
    <polygon id="5" class="fil0" points="4713,9478 4911,9478 4911,10247 4713,10247 "/>
    <polygon id="6" class="fil0" points="5473,9478 5473,9664 5321,9664 5321,10247 5124,10247 5124,9664 4972,9664 4972,9478 "/>
    <polygon id="7" class="fil0" points="5654,10247 5654,9918 5488,9478 5686,9478 5753,9749 5820,9478 6022,9478 5853,9917 5853,10247 "/>
    <polygon id="8" class="fil0" points="5952,10247 5952,10079 6149,10079 6149,10247 "/>
    <polygon id="9" class="fil0" points="6225,9478 6423,9478 6423,10247 6225,10247 "/>
    <path id="10" class="fil0" d="M6497 10037l0 -347c0,-72 24,-128 72,-168 44,-37 103,-55 178,-55 74,0 133,18 178,55 49,40 73,96 73,168l0 347c0,73 -24,129 -72,169 -45,35 -105,53 -179,53 -75,0 -134,-18 -178,-53 -48,-40 -72,-96 -72,-169zm250 34c35,0 53,-18 53,-53l0 -311c0,-35 -18,-52 -53,-52 -34,0 -52,17 -52,52l0 311c0,35 18,53 52,53z"/>
   </g>
   <polygon class="fil0" points="4777,1522 4936,1563 6295,1915 6581,1989 6581,2283 6581,5550 6581,5727 6446,5841 3745,8119 3499,8326 3253,8119 552,5841 417,5727 417,5550 417,2283 417,1990 703,1915 2044,1563 2221,1517 2221,2303 1180,2576 1180,5374 3499,7330 5818,5374 5818,2577 4777,2308 "/>
   <path class="fil0" d="M5841 7414l-2289 1516 -53 35 -53 -35 -2289 -1516 105 -159 2237 1481 2237 -1481 105 159zm-3988 -6489l1599 -899 47 -26 47 26 1599 899 -93 167 -1553 -873 -1553 873 -93 -167z"/>
   <g>
    <path class="fil1" d="M5291 4004c-28,-119 -54,-213 -78,-278 -48,-129 -102,-226 -120,-259 -31,-55 -83,-140 -158,-235 -87,-110 -169,-188 -192,-209 -57,-51 -144,-124 -217,-174 -100,-67 -166,-100 -242,-138 -41,-21 -98,-44 -128,-56 -27,-10 -66,-24 -121,-42 -15,-5 -120,-35 -211,-51 -49,-8 -86,-14 -113,-17 -20,-2 -76,-8 -135,-10 -36,-2 -62,-2 -80,-2 -14,0 -23,0 -28,0 -4,1 -9,1 -16,1l-5 0c-3,0 -8,0 -14,0l0 1 -57 2 -2 0c-25,2 -270,39 -359,63 -68,18 -104,30 -133,40 -37,13 -83,32 -118,48 -61,27 -144,65 -265,144 -34,22 -82,56 -120,86 -35,27 -78,64 -107,89 -46,42 -117,111 -194,207 -27,33 -61,79 -86,114 -14,21 -31,48 -47,75l-27 43c-7,12 -70,117 -124,257 -37,98 -37,98 -82,276 -8,34 -16,80 -25,145 -3,28 -6,63 -9,100 0,0 -3,36 -4,46 -4,49 -3,112 -1,152 9,179 19,227 53,381 20,92 47,161 92,275 12,29 57,131 132,252 80,128 159,217 168,227 40,44 72,78 96,102 33,33 72,70 105,96 7,6 33,27 33,27 23,19 54,44 79,61 62,42 156,101 235,144 12,7 127,67 275,115 125,40 360,76 393,79 22,2 60,5 88,6 32,2 51,2 72,2l33 0c3,0 20,-1 34,-1l61 -3c10,-1 65,-5 151,-18 55,-8 113,-20 146,-27 57,-14 67,-16 170,-49 24,-8 54,-20 79,-29l26 -11c58,-22 133,-58 188,-90 37,-22 92,-54 130,-80 27,-18 62,-43 92,-66l21 -15c1,-1 99,-75 209,-192 30,-32 66,-74 93,-109 17,-20 36,-46 54,-72l29 -40c50,-68 152,-249 198,-379l1 -4c31,-88 56,-158 79,-272 18,-87 30,-207 37,-290 8,-98 -6,-320 -34,-438z"/>
    <g>
     <path class="fil2" d="M5159 4433c-7,76 -17,187 -33,267 -22,105 -44,167 -74,252 -42,117 -132,279 -177,340 -8,11 -17,23 -25,35 -18,24 -36,50 -52,70 -25,31 -59,71 -85,98 -99,106 -186,171 -189,174l-20 14c-27,20 -58,44 -83,61 -35,23 -83,51 -121,73 -48,29 -115,61 -167,81l-26 10c-23,9 -48,19 -69,26 -96,30 -103,32 -157,45 -30,7 -82,17 -132,25 -84,12 -133,15 -133,15l-11 1 5 71 -11 -71 -42 2c-12,1 -28,1 -31,1l-31 0c-19,0 -37,0 -66,-1 -25,-1 -59,-4 -79,-5 -20,-2 -241,-36 -357,-73 -135,-43 -238,-97 -248,-103 -73,-40 -163,-97 -218,-133 -20,-14 -44,-34 -68,-54 -12,-9 -23,-19 -34,-27 -28,-22 -64,-57 -93,-85 -22,-22 -51,-53 -87,-94 -8,-9 -81,-91 -152,-205 -77,-124 -119,-227 -120,-227 -41,-106 -66,-169 -83,-249 -30,-135 -40,-180 -49,-351 -3,-46 -2,-98 1,-133 1,-14 2,-29 3,-45 3,-31 5,-64 9,-91 7,-58 14,-100 22,-129 41,-165 41,-165 75,-253 50,-130 110,-230 110,-230l21 -34c16,-26 34,-55 49,-77 22,-32 53,-74 78,-104 69,-86 134,-149 176,-187 25,-22 65,-57 97,-81 35,-27 79,-59 110,-79 109,-71 182,-104 241,-131 30,-14 73,-31 106,-43 27,-9 59,-20 121,-36 82,-22 304,-55 325,-57 0,0 54,-3 70,-3 8,0 17,-1 20,-1 2,0 35,-1 96,1 52,2 101,8 123,10 31,4 72,10 102,15 81,14 178,43 190,47 47,15 85,28 111,38 27,11 78,31 115,50 70,35 131,65 220,126 67,45 149,114 199,159 15,13 92,85 174,189 67,85 115,163 143,213 16,29 65,117 109,235 28,76 54,181 72,256 24,104 37,306 30,392z"/>
     <g>
      <path class="fil1" d="M3278 2990c-65,109 -26,135 -182,143 -68,20 -138,85 -188,143 -17,20 -82,42 -108,13 -54,-60 4,-123 44,-167 -18,-112 -79,-62 -158,-88 75,-101 616,-197 592,-44z"/>
      <path class="fil1" d="M3374 3173c-33,58 -117,40 -154,6 7,-2 168,-33 154,-6z"/>
      <path class="fil1" d="M3016 4927c-18,82 -35,165 -54,248 -19,92 -68,83 -57,203 8,87 -55,141 -62,213 -85,50 152,204 153,229 -228,23 -365,-406 -423,-558 -63,-167 -293,-247 -289,-444 5,-203 -46,-231 -173,-362 -44,-45 -118,-60 -146,-97 -64,-87 -62,-230 -70,-333 2,63 4,126 10,189 -69,-189 -21,-413 47,-594 44,-121 145,-349 268,-407 14,5 16,15 6,28 74,-47 173,-57 246,-78 1,54 -100,94 -144,130 -111,92 -21,119 5,212 29,-14 145,-270 180,-223 13,16 30,140 80,44 163,146 -64,178 -150,253 169,-55 -73,124 -101,162 -26,38 -45,84 -72,120 -77,102 -50,157 -64,275 -76,-15 21,-161 -113,-120 -52,16 -75,67 -82,117 -7,48 -3,98 8,145 19,78 61,-20 84,-47 27,28 -1,106 -4,147 54,-25 69,57 79,90 24,72 74,37 94,101 22,-172 67,-85 197,-90 62,-2 84,120 157,114 57,-4 65,47 85,87 25,52 83,68 134,83 82,25 194,52 171,163z"/>
      <path class="fil1" d="M2361 3104c-12,10 -26,18 -41,22 -6,-22 62,-40 41,-22z"/>
      <path class="fil1" d="M2256 3202c16,-24 33,-48 51,-71 56,-6 -84,94 47,-2 -14,61 -41,58 -98,73z"/>
      <path class="fil1" d="M2617 3034c-25,54 -105,84 -92,-9 57,-72 147,-67 230,-75 -46,27 -97,48 -138,84z"/>
      <path class="fil1" d="M2646 3224c-37,60 -145,47 -114,2 39,-56 35,-75 -44,-64 -67,-116 224,-43 158,62z"/>
      <path class="fil1" d="M4128 3539c-41,33 -13,78 -12,115 -128,-18 -32,48 -74,92 5,-5 -158,-195 -208,-190 -20,65 123,79 119,119 -34,-11 -46,37 -52,73 -18,-5 -35,-14 -51,-25 15,-19 112,-10 34,-61 -21,-14 -88,-80 -110,-84 -98,-20 -134,122 -195,170 -85,67 -136,-17 -130,-101 11,-149 225,52 76,-148 1,-3 145,-68 148,-70 85,-58 49,-33 55,-97 0,2 106,43 159,37 75,-8 28,-45 90,-49 7,-19 -1,-120 51,-56 29,36 121,258 100,275z"/>
      <path class="fil1" d="M3502 3373c-8,37 -72,97 -67,32 3,-30 73,-56 67,-32z"/>
      <path class="fil1" d="M3629 3404c-40,31 -64,69 -114,22 15,-23 10,-30 5,-58 -2,-14 -33,-35 -33,-35 -4,-32 66,-66 38,-25 12,1 24,2 37,3 -7,11 -14,23 -21,35 38,-22 56,84 88,58z"/>
      <path class="fil1" d="M3796 3690c2,30 -59,-33 -5,-33 -1,11 0,23 5,33z"/>
      <path class="fil1" d="M4557 4412c-23,135 -134,235 -201,349 -39,65 -7,141 -19,211 -13,69 -70,96 -116,141 -47,47 -52,157 -104,207 -49,47 -102,112 -177,114 -62,2 -20,-80 -43,-116 -34,-52 -59,-238 -37,-304 26,-81 67,-112 22,-207 -43,-90 -47,-112 -41,-208 9,-131 -289,-59 -337,-22 -165,-107 -239,-339 -162,-521 27,-65 89,-96 113,-166 24,-72 52,-105 127,-110 73,-5 159,-25 225,-50 68,41 -30,98 88,124 21,5 105,72 111,22 6,-52 31,-44 73,-27 69,26 44,49 67,65 61,-62 95,-4 118,-97 12,26 20,123 0,146 -15,-13 -27,-29 -35,-48 54,132 100,268 166,395 56,109 44,107 163,57 0,15 -1,30 -1,45z"/>
      <path class="fil1" d="M5164 3885c-100,-303 -253,-583 -494,-798 -34,-26 -87,-76 -131,-90 2,44 -66,39 -32,76 -113,-29 14,20 8,65 -38,0 -100,-121 -125,-91 5,24 54,76 64,89 -68,-45 -90,-19 -159,-5 -79,16 -67,-31 -125,-28 53,90 -89,68 -126,22 37,-15 63,34 100,12 -41,-140 -299,-40 -376,-3 41,-1 -108,94 -106,89 -30,94 65,53 95,48 17,25 35,54 57,77 22,-11 30,-66 54,-66 45,-5 -33,-61 -13,-89 10,-13 118,-67 95,-22 -14,26 -82,16 -27,72 29,28 86,-27 108,6 34,50 49,107 65,164 24,89 33,78 89,124 -1,19 5,65 45,23 -9,-15 -22,-6 -30,-23 19,-14 39,-22 62,-24 3,46 14,108 76,130 -22,6 -40,20 -52,40 56,-93 -220,-40 -193,3 35,60 116,121 158,46 -8,33 22,173 29,214 15,86 72,175 106,253 36,80 46,183 145,118 47,-31 92,-73 123,-121 52,-80 -3,-108 -29,-185 -50,19 -26,99 -89,17 -17,-23 -74,-101 -39,-128 31,9 54,43 67,70 12,27 41,-4 59,9 50,35 84,20 133,45 39,21 17,64 71,68 1,1 12,104 20,33 28,32 23,166 29,193 40,54 -29,125 31,172 63,-51 43,-173 75,-242 81,-177 73,-85 103,62 9,-8 18,-17 26,-25 52,120 -12,275 6,404 40,-102 -14,-210 17,-314 22,31 14,101 13,137 30,-50 40,-100 31,-158 -16,-99 17,-156 22,-250 6,-123 -54,-252 -91,-366 27,46 26,102 55,147zm-651 -329c-10,23 -31,32 -61,27 21,29 73,49 80,80 -9,-3 -17,-1 -22,6 9,10 79,90 24,90 -92,-1 -74,-122 -177,-118 51,-16 59,30 100,38 4,-1 -142,-172 -99,-212 3,-4 155,59 155,89z"/>
      <path class="fil1" d="M4306 3653c-1,0 -2,-10 0,0z"/>
      <path class="fil1" d="M4454 5038c-10,23 -173,287 -145,177 11,-45 32,-127 57,-163 0,0 119,-109 98,-104 6,23 -1,69 -10,90z"/>
      <path class="fil1" d="M4956 4521c1,-8 0,-82 -9,-82 -15,8 -16,92 -11,101 13,5 19,-2 20,-19zm-11 -74l0 -1 0 1z"/>
      <path class="fil1" d="M5087 4855c-15,-4 -5,-280 0,-280 47,-4 3,269 0,280z"/>
      <path class="fil1" d="M5101 4934c-3,5 -2,-35 -19,-32l-1 4c0,0 -3,-43 9,-42 16,16 25,45 11,70z"/>
      <path class="fil1" d="M4342 2998c-14,-19 -192,0 -58,73 -35,-59 83,-41 58,-73zm-57 74c-9,-3 7,0 0,0zm11 5c-9,4 -11,4 0,0z"/>
      <path class="fil1" d="M3792 2940c6,2 6,2 0,0z"/>
      <path class="fil1" d="M3779 2936c12,4 12,4 0,0z"/>
      <path class="fil1" d="M3851 2940c17,-40 -312,8 -98,51 28,6 16,-42 37,-51 12,25 30,37 54,39 -4,-8 -10,-15 -19,-20 10,-5 18,-11 26,-19z"/>
      <path class="fil1" d="M4511 2982c22,20 -93,-47 -83,-49 15,-5 69,37 83,49z"/>
      <path class="fil1" d="M4818 5484c8,-10 16,-20 24,-30 -56,69 40,-37 9,-17 -12,8 -54,56 -66,46 87,-137 195,-262 285,-397 2,7 5,3 9,-15 -70,142 -147,299 -261,413z"/>
      <path class="fil1" d="M2691 3560c-7,21 -91,5 -119,5 19,-48 141,-72 119,-5z"/>
      <path class="fil1" d="M2296 4258c38,-101 -152,-62 -119,-46 24,11 104,83 119,46zm-51 7c11,19 -22,-39 0,0zm0 0c2,6 2,6 0,0z"/>
      <path class="fil1" d="M2384 4284c-21,-1 -41,4 -60,13 -75,-118 73,-21 60,-13z"/>
      <path class="fil1" d="M2394 3151c1,0 -36,3 -31,4 0,-9 40,-38 43,-38 23,0 -27,38 -12,34z"/>
      <path class="fil1" d="M2464 3111c30,-33 -49,23 -52,27 20,-4 37,-13 52,-27zm-52 27l0 0zm4 0c-1,0 -15,10 0,0z"/>
      <path class="fil1" d="M2445 3083c-8,10 -18,17 -30,22 -6,-21 66,-59 30,-22z"/>
     </g>
    </g>
   </g>
  </g>
 </g>
</svg>
